<?xml version="1.0" encoding="UTF-8"?>
<svg width="76px" height="93px" viewBox="0 0 76 93" version="1.1" xmlns="http://www.w3.org/2000/svg" xmlns:xlink="http://www.w3.org/1999/xlink">
    <!-- Generator: Sketch 53.1 (72631) - https://sketchapp.com -->
    <title>Infographic</title>
    <desc>Created with Sketch.</desc>
    <g id="HDI-view" stroke="none" stroke-width="1" fill="none" fill-rule="evenodd">
        <g id="Instructions" transform="translate(-96.000000, -87.000000)">
            <g id="Infographic" transform="translate(96.000000, 87.000000)">
                <g>
                    <polygon id="Fill-1" fill="#3847B8" points="48.2138347 90 49.0895522 87.1000407 52.038318 76.142245 52.075775 75.3476648 52.1519805 73.5702008 50.8655281 71.2976324 48.8992537 69.7851722 47.9929679 68.6148469 47.8414179 65.7338472 51.3572044 64.5256027 52.6044776 65.354224 52.8709816 64.485098 52.2643513 63.8417638 52.8335247 63.1988605 52.075775 61.8005889 50.0703215 61.2697197 49.5807979 60.0179542 49.9213548 58.3167596 55.8593571 58.2797022 56.5 57.5613913 57.522101 57.5613913 58.0891217 58.0905369 58.7698048 57.9750557 59.7906142 56.8422187 61.2277555 56.4625955 61.5179392 57.2666555 62.3897819 58.3327029 62.598163 59.4905322 62.559845 60.9340483 64 60.7642736 63.9057118 59.7542432 62.8629449 57.0964499 62.2554535 55.768415 62.5417623 55.1780815 61.9915327 54.13401 61.4796211 53.8297944 61.2514351 52.9964331 61.0254018 52.7482345 60.5147819 53.1274268 59.946039 52.9369689 59.7940586 52.179877 61.4925373 49.0804108 60.3580654 46.282144 60.3197474 45.676729 59.7535878 44.8446604 59.7165614 43.1809542 60.1165327 41.8649846 60.0015786 41.1828693 59.7006315 39.3058674 60.2861653 38.5828167 61.5360218 38.200608 61.8774397 37.5577047 61.8774397 36.6243746 62.2950631 35.7892897 61.9721584 33.755871 61.1201206 33.3219544 60.2112514 33.3577191 59.946039 33.6446987 58.505884 33.5106887 57.4635476 33.530941 56.4789036 34.080339 55.7964983 33.7011467 54.7352181 33.3762478 54.3184558 33.530941 53.9408726 33.2060422 52.4998565 33.5106887 48.5397532 29.5994063 47.5934271 29.1999617 45.9268083 28.8750628 44.4113088 29.1422211 44.032434 29.4653963 42.7644948 29.0857731 41.4173364 29.0469921 40.5661596 29.483925 39.4665614 28.9534867 38.538318 28.8380054 37.0602755 28.1946712 35.8668197 27.205324 35.8099885 26.4452158 36.1712113 25.8380772 36.0941447 25.1167501 36.625 23.9761568 36.3606487 22.9881024 35.4315442 21.5833672 33.3580654 17.7828262 32.4504879 17.7423216 31.7698048 17.8220382 31.8834673 17.2898762 32.6765212 15.5869581 32.8293628 13.8452589 32.4870838 12.9416609 32.7923364 11.8790606 34.4550804 9.49704354 35.2881745 8.77743997 36.1182549 7.56488641 37.0266935 7.33564743 37.5166475 6.73324875 39.087256 4.30469442 41.7789897 3.25889929 42.0243972 3.06844134 42.6069173 3.08266105 42.7528703 2.91547172 43.3564868 2.45957915 43.5838117 1.85545687 42.9797646 1.06130754 41.0896958 0.0405046322 40.3323766 0 40.0667336 0.454168961 39.9922503 0.947549853 39.1983352 1.06130754 38.782434 1.40301151 37.9123134 1.28925382 37.1558553 1.59217676 36.7403846 2.08038685 37.1941734 2.61125607 36.8549082 3.10420607 35.4935419 3.78459771 33.6775258 4.88210088 32.4685706 5.75122687 31.0706085 6.05544251 29.5180827 6.1696311 27.8165901 5.98089675 26.7570321 6.5488234 26.8328071 7.18871041 27.1733639 8.02207167 27.059271 8.85715654 26.266217 9.57503651 25.7353617 9.35053743 25.9256602 8.51545257 25.8119977 8.25174156 26.5684558 7.98759965 25.4735936 7.87254925 24.1488232 7.3041917 23.4681401 7.34340363 21.7291906 8.40126397 21.3132893 9.12086755 20.141791 10.4833744 18.7421068 13.1321188 18.5526693 13.8874871 18.967279 13.7017691 19.3470149 14.1167261 19.4981343 14.9849903 19.1963261 15.933402 18.440729 16.3130252 17.456085 16.3880018 16.7004879 16.8029588 15.3382606 18.1309937 14.77124 18.4309003 13.7521527 19.9429296 13.1438002 20.0196299 12.2749713 20.0588418 12.5776406 21.0404328 13.4852181 22.064252 13.4852181 23.3517823 12.9565155 24.4850502 12.3882032 24.4505781 11.4444604 23.651258 11.5568312 23.2755129 11.8986797 22.6683743 11.1043341 22.3296866 10.7642078 21.3446485 9.60562572 20.3225528 9.38346728 21.2433869 9.55309989 21.9267948 10.0258324 23.236301 9.26808266 24.5815718 8.90772101 25.8570368 8.26449483 26.3702391 7.7543054 26.4060039 7.06759472 27.9917171 7.29061424 28.1899313 7.51664753 29.4059321 7.61265786 30.6059895 8.65284156 31.8780073 9.0510907 31.8375027 9.5630023 31.5720681 9.84758898 32.0464894 9.98062572 33.2030259 9.3348163 33.9256458 9.3163031 34.382831 9.94144661 35.0666699 9.94144661 36.527422 9.25904133 37.0410552 8.84400115 37.8011634 9.25904133 37.9713691 9.67709529 38.9374476 9.54491963 40.7058626 9.63963835 43.1542384 8.91805396 44.0095756 8.78673938 44.7524478 9.41059127 45.6250209 10.3401263 45.2255763 10.2083812 45.8141862 10.7383754 46.5725708 11.2864524 46.5178465 11.3432836 47.0090728 10.8016648 47.6851555 10.3461538 48.8559117 8.38030999 50.8251263 7.85203789 51.9239222 6.37614811 53.3631293 4.41460964 53.7970459 2.89911022 54.9333301 1.45809414 57.1339382 1.23206085 58.8756374 1 59.8386996 2.5249713 60.420846 4.24928243 61.5976348 6.59744546 63.13638 7.52698048 63.1553396 8.75875431 64.4476097 8.56931688 65.224523 8.77511481 65.9066383 10.3870551 66.0410792 12.2237371 66.9339047 12.8480195 67.3725612 14.5348737 67.7500299 15.179822 67.161851 15.1229908 66.0802911 15.8893513 65.4744452 16.2566016 65.4852177 17.8315155 66.0423719 18.6542767 66.5012807 18.88031 67.1851196 19.591992 67.5832715 19.7090987 67.6565245 20.086682 67.6267924 20.6890069 68.233931 22.5799369 68.6881 23.7535878 68.951811 24.0562572 69.5214612 25.3035304 70.9964331 25.4176234 71.9780241 26.2855913 73.6059656 26.9671355 73.6059656 29.4625431 74.4393268 30.522101 75.9905681 30.4829219 77.2393173 30.8622273 77.353075 31.7314868 77.7684629 32.1861366 79.0947741 31.8468714 79.6239198 32.1486797 80.3792881 33.13031 80.7976923 34.2290471 80.5339813 35.1366246 80.760204 36.4204937 80.7231465 36.9504879 80.2702703 38.614093 79.5118857 40.0512342 79.7755967 41.2985075 80.3792881 43.1136625 79.5851387 44.0608496 79.5851387 44.4741676 80.1922773 45.0812285 80.154789 46.2522962 80.7231465 46.7822905 81.4410265 47.803961 81.0988916 47.8788749 81.8167716 44.4741676 87.5714457 44.6640356 88.2173653 45.8368255 88.1023149 47.1598737 87.9864027 47.9550804 88.8606995"></polygon>
                    <path d="M39.3964889,0 L38.8460109,0.944634335 L38.8306606,1.04659487 L38.3697258,1.11256933 L38.0418268,1.38289326 L37.3016023,1.28607359 L36.2177021,1.72133368 L35.2996702,2.80391461 L35.7444019,3.32614103 L34.6805423,3.86036281 L32.8325394,4.97850141 L31.7072787,5.78775958 L30.5150738,6.04780177 L29.0930411,6.15276114 L27.2535661,5.94798327 L25.5837969,6.84677821 L25.7095839,7.91222292 L25.2541923,7.86381309 L23.8880176,7.27604061 L22.8702089,7.33430377 L20.842693,8.57325275 L20.3723775,9.3885086 L19.2556448,10.6925752 L17.7798861,13.4575049 L17.1765349,15.7914586 L18.3704454,15.2546664 L18.4271561,15.5828251 L18.2719478,16.0733495 L17.9154802,16.2532798 L16.92624,16.3286792 L15.9587461,16.8624726 L14.6143176,18.1785346 L13.9862354,18.5122625 L13.0575436,19.8955842 L11.0543323,20.0065412 L11.6696226,22.0106226 L12.3842633,22.8198808 L11.4103734,22.4034705 L11.115307,21.5453741 L8.94580099,19.6235466 L8.40811486,21.856825 L8.61832839,22.7063533 L8.99696859,23.7709412 L8.40640927,24.8243906 L8.04695693,26.0273535 L7.7604184,26.2569789 L7.04577767,26.3071023 L5.98959326,28.7545835 L6.4130051,29.1320088 L6.58526933,30.0642194 L6.69570605,31.4424002 L8.10750525,33.1757292 L8.94111063,33.0909049 L8.98886705,33.5090288 L8.39191179,34.1794835 L8.35183051,35.1828094 L8.98204471,35.8751129 L8.98204471,36.6950812 L8.46695759,37.0840734 L7.60137246,38.674315 L8.4793231,39.0358893 L8.70915087,39.5683975 L8.58762784,41.1920547 L8.67290716,43.3902038 L8.0124188,44.1758997 L7.79708851,45.3989976 L8.92106999,46.976387 L9.42208601,46.7600422 L10.0352443,47.6412725 L9.92224924,47.7835032 L9.48519271,48.9097815 L7.55830641,50.84746 L7.03724974,51.9356102 L5.81008028,53.1364311 L3.91474733,53.5575538 L2.1916786,54.8547659 L0.60718878,57.2838256 L0.367127486,59.1396786 L0,60.6690866 L2.0155768,61.4415019 L3.66530531,62.5716359 L6.1610047,64.2141429 L6.99034611,64.2304223 L7.73867217,65.0186886 L7.5971085,65.6017486 L7.99706852,66.929806 L9.94143709,67.0926001 L11.5907392,67.8967174 L12.2776641,68.3816725 L14.4458909,68.8687697 L15.6052633,67.8067522 L15.5502582,66.7627278 L15.8171825,66.550667 L17.2123522,67.0467607 L17.7338352,67.3385049 L17.9576935,68.0175278 L18.8723142,68.5299009 L19.1865685,68.7286811 L19.4671375,68.7059756 L19.9741231,69.2187771 L22.0528066,69.7200116 L22.8970719,69.9106521 L23.0437523,70.1882589 L24.2257237,71.6161348 L24.3289117,72.5123593 L25.4528932,74.6269693 L26.4378693,74.6269693 L28.5732636,75.342835 L29.3578334,76.4956745 L29.3096506,78.052072 L30.1543422,78.3065449 L30.6971451,78.5670155 L30.9401912,79.2768836 L30.5918252,79.8218155 L31.1354809,81.188001 L32.5946101,81.8121879 L33.741617,81.5358663 L34.5671208,81.7419294 L36.1861488,81.6952332 L36.8248909,81.146874 L38.1791266,80.5269711 L39.2890369,80.731749 L40.7315367,81.433049 L42.6925347,80.5715253 L43.107845,80.5715253 L43.5329625,81.1982827 L44.3507912,81.1481592 L45.1856757,81.5547161 L45.9135348,82.5439047 L46.2265099,82.4389453 L43.1244745,87.7027648 L43.5645158,89.2081821 L46.26318,88.9519955 L46.6891502,89.4219565 L47.4980246,93 L49.1477531,87.5155516 L52.0677171,76.6216257 L52.2131184,73.7054689 L50.7680602,71.1427466 L48.7784936,69.6069125 L48.0732336,68.6918382 L47.9627969,66.5870815 L50.6077351,65.675006 L52.3427429,66.8321295 L53.0066425,64.6583995 L52.5678803,64.1914374 L53.0309471,63.6666406 L51.8971585,61.5670247 L49.9634498,61.0533664 L49.6850128,60.3400711 L49.8683634,59.4224263 L55.4865652,59.3872971 L56.1189114,58.675287 L56.5346481,58.675287 L57.1478064,59.2502073 L58.4107932,59.0351477 L59.4456578,57.8827366 L60.0370699,57.7255118 L60.145801,58.0262525 L60.9695993,59.0377181 L61.1303508,59.9352278 L61.0727872,62.1200964 L64,61.7730878 L63.8328525,59.9763548 L62.7485259,57.2041422 L62.2858856,56.1888209 L62.5805257,55.580485 L61.7742097,54.0450793 L61.3414171,53.7871792 L61.1461275,53.070885 L60.3752024,52.2217851 L59.887831,52.5850731 L61.5298844,49.576809 L60.323182,46.5882516 L60.2801159,45.9070867 L59.7283587,45.093116 L59.6989373,43.7633451 L60.1099837,42.4044425 L59.7219628,40.0143677 L59.9658616,39.7119134 L61.277884,39.3092121 L61.83689,38.2523355 L61.83689,37.3154125 L62.2773577,36.4307549 L61.8650321,33.8243353 L60.5342483,33.1444556 L59.1557081,33.1988631 L58.9314234,33.4421975 L57.8146907,33.3380949 L56.5653486,33.3620856 L55.7803524,33.8020582 L55.4494687,33.6174154 L54.0325527,33.1658759 L53.7860955,33.2575547 L53.4633132,32.9786626 L52.0664379,33.2751193 L48.3188381,29.5595576 L47.2562577,29.1088749 L45.3370465,28.718169 L43.5159066,29.0399016 L43.2882108,29.235683 L42.3117626,28.9426535 L40.7025417,28.8959573 L40.0113528,29.2519624 L39.1351078,28.8274124 L38.202152,28.7113145 L36.9238149,28.153102 L36.0518338,27.4269545 L36.0352044,27.1977576 L36.3989207,26.5834239 L36.3183317,25.8272881 L36.8696625,24.6376057 L36.511063,23.293269 L35.5435691,21.825123 L33.3135148,17.720569 L32.3200107,17.6760148 L32.9028948,16.4186444 L33.079423,14.3995688 L32.7664479,13.5701756 L32.9711183,12.8555951 L34.4993238,10.6578744 L35.3269596,9.940295 L36.0497019,8.88084797 L36.9169926,8.66064749 L37.5514707,7.87880728 L39.026803,5.59497706 L41.5749492,4.60150449 L41.7003098,4.50382801 L42.3565342,4.51967902 L42.6724941,4.1581047 L43.3760485,3.62473973 L43.8118258,2.46204695 L42.8827076,1.23595014 L40.7366535,0.0719721398 L39.3964889,0 Z M38.9632699,2.46675941 L40.0753123,2.30696412 L40.2010993,1.4707164 L40.342663,1.47842771 L41.9399447,2.34380701 L42.2077218,2.69724162 L42.1932243,2.73536972 L41.7399647,3.07895101 L41.2304207,3.06695565 L40.8692628,3.34798972 L38.0857457,4.43356949 L36.4270629,7.00871552 L36.1140877,7.39470896 L35.1828375,7.63076044 L34.2605417,8.98238009 L33.438449,9.69567541 L31.673167,12.2339786 L31.273207,13.6322944 L31.6377761,14.5996342 L31.5124155,16.0442179 L30.7794397,17.6233209 L30.4084746,19.2765381 L32.0087411,19.0884681 L32.4517672,19.1086031 L34.3134148,22.5345627 L35.2007462,23.8866107 L35.3661881,24.5060852 L34.8660249,25.5848105 L34.9385123,26.2629765 L34.5867351,26.8554615 L34.6826743,28.137251 L36.1737833,29.3791988 L37.8239382,30.099777 L38.7287518,30.2128761 L40.0313935,30.8434892 L41.0257504,30.3306877 L42.0849196,30.3615329 L43.6199474,30.8229257 L44.1422832,30.3765271 L45.3238282,30.1674651 L46.7731503,30.4506412 L47.5172124,30.7659477 L51.6136047,34.8272328 L53.070602,34.5183523 L53.4957194,34.8850675 L54.0756188,34.6695795 L54.8260768,34.8996333 L55.7816316,35.4329983 L56.9469736,34.7801082 L57.7622439,34.7646856 L59.4976781,34.9266229 L59.7987141,34.599321 L60.2204204,34.5830416 L60.5777408,34.765114 L60.8045838,36.2024147 L60.4182684,36.9782573 L60.4182684,37.8971873 L60.3010094,38.1191014 L59.1369466,38.4763916 L58.2210467,39.611238 L58.6559712,42.3101933 L58.275199,43.5671353 L58.3191179,45.5463691 L58.8892102,46.3864725 L58.9224691,46.9095557 L59.9624504,49.4851302 L58.3178387,52.4976783 L58.6001133,53.9101316 L59.9036077,54.3479621 L60.0038109,54.2738479 L60.1249076,54.7185329 L60.7065125,55.0655414 L60.9904927,55.6066177 L60.7730304,56.056872 L58.6751591,56.6129425 L57.6880509,57.713088 L57.6027716,57.7276538 L57.0932276,57.25041 L55.4844332,57.25041 L54.847823,57.9662757 L48.7043006,58.0048322 L48.2130917,60.4703064 L48.904707,62.2460476 L50.9424564,62.7875523 L51.3104367,63.4687172 L50.7309637,64.125463 L46.4904494,65.5884681 L46.6801959,69.212351 L47.7692128,70.6248042 L49.6752057,72.0963774 L50.7782937,74.052049 L50.6776641,76.3251691 L47.7837103,87.1239889 L47.4698824,88.1667281 L46.8396682,87.4709974 L44.8014924,87.654355 L47.9930711,82.2384515 L47.8028982,80.4065892 L46.4414138,80.8636979 L46.1194843,80.4258674 L44.6347713,79.7022904 L44.250588,79.7262811 L43.8574503,79.1466483 L42.3957627,79.1466483 L40.7613845,79.8642277 L39.7333422,79.3651352 L37.9970552,79.0446878 L36.0556714,79.933201 L35.6450515,80.2853504 L34.7206236,80.3123399 L33.7484393,80.0685771 L32.7191179,80.316624 L32.2338785,80.1092757 L32.1801526,79.9738995 L32.5037876,79.4666673 L31.8458576,77.5388421 L30.7602518,77.0183293 L30.7900996,76.0754086 L29.4755188,74.142871 L26.6685499,73.2016639 L26.3035544,73.2016639 L25.7074519,72.0796696 L25.5850761,71.0236498 L24.2602618,69.4514013 L23.8432459,68.6635634 L20.6968653,67.9275626 L20.0103668,67.2331171 L19.5353609,67.2712452 L19.1307105,67.0437619 L18.9059995,66.3634538 L17.8502415,65.7722541 L16.0777108,65.1317877 L15.344735,65.1103674 L14.0953929,66.101698 L14.1538093,67.2082696 L14.035271,67.3162278 L12.8622539,67.05233 L12.3591059,66.6976101 L10.3230621,65.6942842 L9.07542556,65.5901817 L9.06689763,65.5619069 L9.30098937,64.5992795 L7.609474,62.8179691 L6.59763483,62.7974056 L4.45371265,61.3870944 L2.7459942,60.2171187 L1.67104834,59.7844291 L1.75547487,59.4365637 L1.97208435,57.7914862 L3.24146707,55.8448112 L4.51980412,54.8826123 L6.51022353,54.4404977 L8.20685566,52.780426 L8.73217629,51.6832793 L10.6987175,49.7053307 L11.164769,48.5040814 L11.8180086,47.6849699 L11.6478763,46.2044001 L10.8236517,46.2870824 L10.7157733,46.132428 L11.082048,44.4929198 L9.40972051,45.2143548 L9.2980046,45.0567016 L9.34277624,44.802657 L10.1119957,43.8875827 L10.0088078,41.2173306 L10.149945,39.3246347 L9.5879543,38.0205681 L10.4006662,37.405806 L10.4006662,35.3216128 L9.83355875,34.6987111 L10.4710217,33.9819885 L10.2851128,32.3609018 L9.58113195,31.1832148 L8.69380059,31.6454644 L8.07381991,30.8846161 L7.99664213,29.9134206 L7.71905793,28.3908671 L7.70029648,28.3741593 L8.00431727,27.6681469 L8.30023652,27.647155 L9.28777108,26.8563183 L9.68389353,25.4494343 L10.5324228,23.9363058 L10.3669809,24.4915194 L11.8363436,25.7407501 L13.1159599,25.8182915 L13.9099104,24.1093816 L13.9099104,22.4004717 L12.9756754,21.3423099 L13.8728139,21.2287824 L14.96311,19.6051252 L15.4577301,19.342941 L16.8106866,18.0183109 L17.3402712,17.7265667 L18.3017955,17.6533093 L19.4419801,17.078389 L19.8845798,15.6826436 L19.6696759,14.4424094 L19.1601319,13.8833401 L20.3830374,11.5613818 L21.4912422,10.2675969 L21.8886439,9.60185458 L23.3051334,8.73647528 L23.6360172,8.71762544 L24.7467804,9.19615448 L24.7783337,9.26941184 L24.5092775,10.4548101 L25.9995336,11.0875652 L27.3119824,9.89488401 L27.4360638,8.9828085 L29.3829908,8.30035839 L27.2655052,8.07673067 L27.1128552,7.70187577 L27.1064592,7.64404102 L27.5349878,7.4131304 L29.0661781,7.58363583 L30.6681502,7.46582429 L32.2957061,7.11753054 L33.5893934,6.18360635 L35.3397515,5.12244569 L36.8261701,4.37616314 L37.5753489,3.28330047 L37.2112062,2.8566085 L37.4845265,2.74736508 L38.4673707,2.87588675 L38.9632699,2.46675941 Z M12.0188414,24.0292698 L12.4917152,23.1861676 L12.4917152,23.7932183 L12.2793697,24.2503271 L12.0188414,24.0292698 Z M10.4172957,23.5276068 L10.6279356,23.617572 L10.5473467,23.8874675 L10.4172957,23.5276068 Z" id="Fill-2" fill="#E70C00"></path>
                </g>
                <g id="Cursor-icon" transform="translate(42.000000, 43.000000)">
                    <path d="M30.7896,20.4476 C30.4136,19.9596 29.8796,19.6926 28.7096,19.6926 C28.3846,19.6926 28.0876,19.7266 27.8166,19.7876 L27.4166,19.9396 L27.3736,24.3576 C27.3696,24.8216 26.9846,25.1946 26.5126,25.1896 C26.0406,25.1856 25.6606,24.8056 25.6656,24.3426 L25.7106,19.6166 C25.7636,18.1386 25.5416,17.5016 25.2466,17.1896 C24.9666,16.8896 24.4126,16.6766 23.1236,16.6766 C22.1056,16.6766 21.3626,16.9996 20.9496,17.5216 L20.8186,17.6326 L20.7756,22.0636 C20.7716,22.5276 20.3856,22.9006 19.9136,22.8956 C19.4416,22.8906 19.0616,22.5106 19.0666,22.0476 L19.1116,17.3236 C19.1646,15.8446 18.9426,15.2066 18.6476,14.8946 C18.3676,14.5946 17.8136,14.3826 16.5256,14.3826 C15.7626,14.3826 15.1526,14.5646 14.7226,14.8756 L14.3796,15.2006 L14.3606,22.1956 C14.3596,22.6586 13.9756,23.0346 13.5036,23.0326 C13.0316,23.0316 12.6506,22.6546 12.6516,22.1906 L12.6966,5.6236 C12.7496,4.1426 12.5276,3.5056 12.2326,3.1916 C11.9516,2.8936 11.3986,2.6796 10.1096,2.6796 C9.2386,2.6796 8.5656,2.9186 8.1356,3.3116 C7.7256,3.6856 7.4286,4.2976 7.4916,5.2866 L7.4926,5.3386 L7.4926,29.3526 C7.4926,29.8166 7.1096,30.1926 6.6396,30.1926 C6.1666,30.1926 5.7836,29.8166 5.7836,29.3526 L5.7836,23.8626 L5.2706,23.9306 C0.7216,24.8356 1.1176,29.5226 3.2036,32.6596 C5.7876,36.5496 9.0836,40.7446 10.1316,45.9606 L10.3306,47.4746 L25.9306,47.5436 L26.0346,46.9936 C27.5316,40.4836 33.1436,31.9456 31.9006,23.9456 C31.5726,22.0846 31.2456,21.0406 30.7896,20.4476" id="Fill-1" fill="#FFFFFF"></path>
                    <path d="M26.0347,46.9935 L25.9307,47.5435 L10.3307,47.4745 L10.1317,45.9605 C9.0837,40.7445 5.7877,36.5495 3.2037,32.6605 C1.1177,29.5225 0.7217,24.8355 5.2707,23.9305 L5.7837,23.8625 L5.7837,29.3525 C5.7837,29.8165 6.1667,30.1925 6.6387,30.1925 C7.1097,30.1925 7.4927,29.8165 7.4927,29.3525 L7.4927,5.3385 L7.4917,5.2865 C7.4287,4.2975 7.7247,3.6855 8.1357,3.3115 C8.5657,2.9185 9.2387,2.6795 10.1097,2.6795 C11.3987,2.6795 11.9517,2.8935 12.2327,3.1915 C12.5277,3.5055 12.7497,4.1425 12.6967,5.6235 L12.6517,22.1905 C12.6507,22.6545 13.0317,23.0315 13.5037,23.0335 C13.9747,23.0345 14.3597,22.6585 14.3607,22.1955 L14.3797,15.2005 L14.7217,14.8755 C15.1527,14.5645 15.7627,14.3825 16.5257,14.3825 C17.8137,14.3825 18.3677,14.5955 18.6477,14.8945 C18.9427,15.2065 19.1647,15.8455 19.1117,17.3235 L19.0667,22.0475 C19.0617,22.5115 19.4417,22.8905 19.9137,22.8955 C20.3857,22.9005 20.7717,22.5275 20.7757,22.0635 L20.8187,17.6325 L20.9497,17.5215 C21.3627,16.9995 22.1057,16.6775 23.1237,16.6775 C24.4127,16.6775 24.9667,16.8895 25.2467,17.1895 C25.5417,17.5015 25.7637,18.1395 25.7107,19.6175 L25.6657,24.3425 C25.6607,24.8065 26.0407,25.1855 26.5127,25.1895 C26.9847,25.1945 27.3697,24.8215 27.3737,24.3575 L27.4167,19.9395 L27.8167,19.7875 C28.0877,19.7265 28.3847,19.6925 28.7097,19.6925 C29.8797,19.6925 30.4137,19.9595 30.7897,20.4475 C31.2457,21.0405 31.5727,22.0845 31.9007,23.9455 C33.1427,31.9455 27.5317,40.4835 26.0347,46.9935 M28.7097,18.0125 C28.2707,18.0125 27.8387,18.0575 27.4257,18.1535 L27.3547,18.1745 L27.2777,17.6035 C27.1407,16.9955 26.8977,16.4695 26.5027,16.0495 C25.6957,15.1925 24.4747,14.9965 23.1237,14.9965 C22.4447,14.9965 21.7727,15.1065 21.1687,15.3475 L20.7177,15.5915 L20.6797,15.3095 C20.5417,14.7015 20.2997,14.1755 19.9037,13.7535 C19.0977,12.8975 17.8757,12.7015 16.5257,12.7015 C15.8467,12.7015 15.1747,12.8115 14.5687,13.0535 L14.3857,13.1525 L14.4057,5.6545 C14.4587,4.1555 14.2797,2.8935 13.4887,2.0525 C12.6827,1.1965 11.4617,0.9995 10.1097,0.9995 C8.9437,0.9995 7.8057,1.3195 6.9727,2.0805 C6.2247,2.7625 5.8077,3.7195 5.7757,4.8815 L5.7837,5.3385 L5.7837,22.1705 L4.9177,22.2845 C-0.7473,23.4015 -1.1153,29.2325 1.7727,33.5785 C4.8557,38.2185 8.3687,42.6095 8.7287,48.3635 C8.7557,48.8035 9.1277,49.1495 9.5777,49.1515 L26.6357,49.2255 C27.0617,49.2275 27.4247,48.9195 27.4847,48.5045 C28.3837,42.2965 34.9987,32.7585 33.5887,23.6755 C32.9267,19.9235 32.0387,18.0125 28.7097,18.0125" id="Fill-3" fill="#000000"></path>
                </g>
            </g>
        </g>
    </g>
</svg>